# xmcd CD database file
#
# Track frame offsets:
#	150
#	14273
#	21978
#	39892
#	54214
#	73699
#	85838
#	105475
#	115236
#	134681
#	143328
#	173975
#	200075
#	212920
#	229457
#	250697
#	270777
#	292456
#
# Disc length: 4087 seconds
#
# Revision: 0
# Processed by: cddbd v1.5.1PL2 Copyright (c) Steve Scherf et al.
# Submitted via: CDex 1.51
#
DISCID=050ff512
DTITLE=Dusty Spittle - Riverton Heritage Music Festival:10 Years On
DYEAR=1900
DGENRE=Country
TTITLE0=One Country
TTITLE1=April25,1995
TTITLE2=Cooley's Reel
TTITLE3=Mc Shanes Chained Lightning
TTITLE4=Red Rose Cafe'
TTITLE5=Wall Of Tears
TTITLE6=Once Bitten Twice Shy
TTITLE7=Hokonui Moonshine
TTITLE8=Minne Dean
TTITLE9=If I Had My Way
TTITLE10=The Daisy Patch
TTITLE11=Sweet Sixteen
TTITLE12=They Wouldn't Have A Clue
TTITLE13=Cliff's Of Doonean
TTITLE14=Faith
TTITLE15=Leaving Nancy
TTITLE16=Rush-Hour
TTITLE17=One Country
EXTD=
EXTT0=
EXTT1=
EXTT2=
EXTT3=
EXTT4=
EXTT5=
EXTT6=
EXTT7=
EXTT8=
EXTT9=
EXTT10=
EXTT11=
EXTT12=
EXTT13=
EXTT14=
EXTT15=
EXTT16=
EXTT17=
PLAYORDER=
